<?xml version="1.0" encoding="UTF-8" ?>
<!DOCTYPE svg PUBLIC "-//W3C//DTD SVG 1.1//EN" "http://www.w3.org/Graphics/SVG/1.1/DTD/svg11.dtd">
<svg width="159pt" height="174pt" viewBox="0 0 159 174" version="1.1" xmlns="http://www.w3.org/2000/svg">
<g id="libra">
<path fill="#394b5f" opacity="1.00" d=" M 52.66 0.00 L 52.74 0.00 C 52.70 0.00 52.63 0.01 52.60 0.02 L 52.66 0.00 Z" />
<path fill="#394b5f" opacity="1.00" d=" M 55.72 0.00 L 57.48 0.00 C 57.33 0.53 57.01 1.59 56.85 2.13 C 56.57 1.59 56.00 0.53 55.72 0.00 Z" />
<path fill="#394b5f" opacity="1.00" d=" M 101.87 0.00 L 102.73 0.00 C 103.93 2.13 100.32 1.94 101.87 0.00 Z" />
<path fill="#394b5f" opacity="1.00" d=" M 106.81 0.00 L 106.89 0.00 C 106.86 0.00 106.79 0.01 106.76 0.01 L 106.81 0.00 Z" />
<path fill="#394b5f" opacity="1.00" d=" M 59.92 1.23 C 61.54 0.74 62.06 1.31 61.48 2.94 C 59.86 3.42 59.34 2.85 59.92 1.23 Z" />
<path fill="#394b5f" opacity="1.00" d=" M 97.48 1.23 C 99.11 0.79 99.63 1.38 99.03 3.00 C 97.41 3.43 96.90 2.84 97.48 1.23 Z" />
<path fill="#394b5f" opacity="1.00" d=" M 63.80 3.27 C 65.41 2.74 65.96 3.29 65.46 4.93 C 63.85 5.46 63.30 4.90 63.80 3.27 Z" />
<path fill="#394b5f" opacity="1.00" d=" M 79.30 4.01 C 80.78 8.90 83.81 13.64 88.69 15.67 C 92.70 10.56 98.01 5.62 104.98 5.79 C 114.44 4.70 123.24 13.68 121.99 23.08 C 121.40 29.91 114.91 35.66 107.98 34.90 C 102.01 34.72 96.91 28.95 97.57 22.99 C 97.97 18.53 102.22 13.87 107.01 15.27 C 110.55 16.29 111.45 21.32 108.74 23.70 C 106.79 25.84 103.79 24.45 101.41 24.10 C 102.23 26.23 103.03 28.64 105.14 29.86 C 109.76 32.28 116.30 29.90 117.79 24.75 C 120.38 17.86 115.17 9.82 107.98 8.94 C 100.79 7.40 93.25 11.93 90.56 18.62 C 87.70 25.62 89.26 34.13 94.23 39.79 C 96.41 42.39 99.42 44.02 102.13 45.98 C 92.74 43.79 87.13 33.96 86.81 24.80 C 86.34 25.49 85.41 26.88 84.94 27.57 C 84.69 23.48 82.46 20.00 79.60 17.21 C 76.51 19.88 74.43 23.51 74.06 27.62 C 73.41 26.64 72.76 25.67 72.10 24.70 C 72.03 33.97 66.29 43.83 56.84 46.02 C 60.13 43.59 63.91 41.56 66.16 38.01 C 71.04 31.12 71.53 20.78 65.76 14.25 C 60.97 8.38 51.52 6.68 45.38 11.38 C 40.50 14.87 38.95 22.50 42.63 27.36 C 45.22 30.98 50.86 31.94 54.49 29.43 C 56.23 28.16 56.85 26.01 57.60 24.09 C 55.21 24.47 52.23 25.79 50.28 23.66 C 47.23 21.03 48.83 15.38 52.96 15.10 C 59.38 14.52 63.34 22.40 60.77 27.80 C 58.32 34.77 48.88 36.97 43.05 32.91 C 35.75 28.38 35.10 16.92 41.04 11.02 C 45.66 5.83 53.57 4.20 59.92 6.98 C 64.35 8.55 67.67 12.08 70.18 15.94 C 74.73 13.48 78.66 9.35 79.30 4.01 Z" />
<path fill="#394b5f" opacity="1.00" d=" M 67.12 6.21 C 68.76 5.69 69.30 6.24 68.74 7.86 C 67.10 8.38 66.56 7.83 67.12 6.21 Z" />
<path fill="#394b5f" opacity="1.00" d=" M 90.24 6.18 C 91.87 5.65 92.43 6.19 91.92 7.82 C 90.29 8.35 89.73 7.81 90.24 6.18 Z" />
<path fill="#394b5f" opacity="1.00" d=" M 70.08 9.29 C 71.86 8.70 73.13 11.66 71.16 12.23 C 69.43 12.82 68.20 9.83 70.08 9.29 Z" />
<path fill="#394b5f" opacity="1.00" d=" M 88.19 9.25 C 90.16 8.69 90.52 11.82 88.76 12.27 C 86.79 12.95 86.37 9.59 88.19 9.25 Z" />
<path fill="#394b5f" opacity="1.00" d=" M 22.81 40.33 C 20.61 35.08 25.58 29.11 30.98 29.17 C 35.70 29.25 40.57 32.11 42.11 36.74 C 46.08 45.35 42.87 55.84 36.13 62.08 C 35.34 63.13 32.42 64.40 32.84 61.91 C 34.63 57.88 38.14 54.83 39.65 50.63 C 41.68 45.81 41.22 39.96 38.40 35.56 C 36.09 32.00 31.16 30.15 27.25 32.12 C 25.14 33.32 24.24 35.72 23.78 37.97 C 25.58 36.03 28.01 33.38 30.91 35.05 C 34.21 36.24 35.09 41.04 32.35 43.25 C 29.24 46.06 24.04 44.10 22.81 40.33 Z" />
<path fill="#394b5f" opacity="1.00" d=" M 117.24 36.05 C 119.18 31.54 124.24 28.81 129.06 29.26 C 134.02 29.82 138.24 35.37 136.25 40.25 C 135.08 44.07 129.84 46.03 126.72 43.26 C 123.54 40.89 125.14 35.32 128.96 34.68 C 131.68 33.98 133.57 36.37 135.48 37.81 C 134.77 35.67 133.88 33.28 131.71 32.24 C 127.61 29.98 122.31 32.37 120.18 36.26 C 117.59 41.08 117.49 47.16 119.96 52.05 C 121.62 55.69 124.71 58.45 126.38 62.09 C 126.01 62.43 125.26 63.12 124.89 63.47 C 116.35 57.73 112.51 45.43 117.24 36.05 Z" />
<path fill="#394b5f" opacity="1.00" d=" M 122.74 48.92 C 121.96 46.42 122.92 43.88 123.61 41.49 C 125.28 45.83 126.10 50.92 129.91 54.03 C 134.61 57.86 140.44 60.00 145.14 63.85 C 153.20 69.78 158.69 79.29 159.00 89.37 L 159.00 94.14 C 158.45 102.05 154.35 109.31 148.92 114.92 C 143.67 120.33 138.82 126.45 132.04 130.02 C 124.29 134.27 115.25 134.82 107.09 137.98 C 101.85 139.68 97.23 142.72 92.51 145.48 C 100.10 137.67 111.17 134.94 121.34 132.16 C 131.01 129.70 139.66 123.30 144.67 114.65 C 148.03 108.81 149.20 101.16 145.99 95.01 C 144.05 91.26 139.60 89.69 137.66 85.97 C 137.81 81.85 142.61 80.57 145.67 79.02 C 141.13 78.06 136.26 76.40 133.73 72.20 C 131.10 68.70 131.15 64.17 129.78 60.18 C 127.51 56.39 123.70 53.44 122.74 48.92 M 137.92 62.85 C 141.65 68.17 146.58 72.68 149.34 78.67 C 154.22 88.33 153.63 99.90 150.39 109.97 C 154.73 102.81 155.64 94.00 154.10 85.88 C 151.66 76.64 145.54 68.51 137.92 62.85 Z" />
<path fill="#394b5f" opacity="1.00" d=" M 29.11 54.04 C 32.88 51.03 33.77 46.09 35.34 41.81 C 36.23 44.07 37.10 46.54 36.30 48.97 C 35.31 53.49 31.47 56.43 29.22 60.24 C 27.92 64.24 27.96 68.80 25.24 72.24 C 22.61 76.19 18.08 78.16 13.56 78.98 C 15.79 80.13 18.22 81.05 20.04 82.82 C 21.02 83.85 22.07 85.57 20.87 86.87 C 18.64 89.94 14.88 91.62 13.04 95.03 C 10.27 100.25 10.79 106.69 13.05 112.00 C 16.06 118.83 21.59 124.34 27.92 128.15 C 34.47 132.14 42.26 132.93 49.35 135.55 C 55.86 137.96 62.61 140.79 67.23 146.20 C 63.66 143.97 60.21 141.50 56.36 139.76 C 48.53 136.10 39.84 135.02 31.71 132.23 C 25.32 129.97 20.19 125.31 15.50 120.58 C 10.33 115.31 4.95 109.91 1.96 103.03 C 0.56 100.50 1.09 97.46 0.00 94.83 L 0.00 88.79 C 0.65 79.19 5.62 70.07 13.33 64.32 C 18.14 60.21 24.20 57.98 29.11 54.04 M 5.36 84.07 C 3.59 92.76 3.75 102.44 8.72 110.12 C 5.62 101.13 5.03 91.13 8.16 82.06 C 10.82 74.62 16.62 69.05 21.25 62.85 C 13.95 68.01 8.28 75.61 5.36 84.07 Z" />
<path fill="#394b5f" opacity="1.00" d=" M 73.07 47.22 C 74.88 45.22 77.04 42.80 80.04 43.22 C 82.63 43.33 84.32 45.51 85.97 47.21 C 81.68 46.72 77.36 46.72 73.07 47.22 Z" />
<path fill="#394b5f" opacity="1.00" d=" M 72.91 49.94 C 77.27 49.21 81.73 49.24 86.10 49.91 C 85.52 53.30 82.62 56.43 78.94 55.88 C 75.67 55.85 73.54 52.86 72.91 49.94 Z" />
<path fill="#394b5f" opacity="1.00" d=" M 71.38 58.56 C 77.21 57.24 83.44 57.21 89.18 58.99 C 95.61 61.04 100.64 66.18 107.34 67.52 C 110.62 68.58 114.04 63.85 116.88 67.15 C 119.19 69.75 117.16 72.64 115.08 74.54 C 120.48 84.78 124.91 95.58 131.31 105.25 C 128.06 109.86 122.47 111.89 117.00 112.09 C 109.75 112.52 101.02 111.78 96.49 105.26 C 102.59 95.28 107.59 84.70 113.00 74.34 C 108.74 73.72 104.33 73.40 100.43 71.44 C 96.17 69.33 92.16 66.74 87.80 64.83 C 85.56 81.78 84.01 98.82 82.06 115.80 C 84.43 115.81 86.80 115.80 89.17 115.80 C 89.47 118.52 89.41 121.52 91.13 123.82 C 92.56 126.06 95.22 126.86 97.52 127.90 C 97.51 129.96 97.50 132.03 97.49 134.10 C 99.00 133.49 100.51 132.90 102.02 132.32 C 98.31 135.14 94.17 137.76 91.94 142.02 C 87.53 149.45 88.08 160.27 95.01 166.01 C 101.10 171.46 112.35 171.13 116.72 163.67 C 120.52 158.19 118.09 148.96 111.01 147.78 C 106.28 146.29 102.60 150.35 101.22 154.41 C 103.78 153.91 106.93 152.73 109.02 155.03 C 112.21 158.03 109.30 163.93 105.00 163.34 C 98.63 162.95 95.62 154.77 98.72 149.65 C 101.96 142.76 112.07 141.77 117.46 146.63 C 122.99 151.40 123.32 160.40 119.20 166.17 C 114.15 173.47 103.25 174.52 96.00 170.04 C 92.93 168.39 91.22 165.29 88.86 162.91 C 84.21 164.55 80.55 169.11 79.78 174.00 L 79.39 174.00 C 78.18 169.05 74.86 164.85 70.25 162.65 C 65.60 170.63 55.35 175.11 46.54 171.50 C 37.86 168.23 34.01 156.21 39.74 148.75 C 44.12 142.23 55.16 141.70 59.59 148.43 C 63.46 153.27 61.37 161.91 54.97 163.23 C 50.71 164.53 46.79 159.13 49.55 155.55 C 51.50 152.76 55.08 153.74 57.82 154.41 C 56.63 152.32 55.82 149.71 53.57 148.49 C 49.37 146.14 43.71 148.49 41.63 152.62 C 39.23 157.84 41.18 164.82 46.22 167.74 C 51.72 170.90 59.21 170.11 64.03 166.02 C 70.89 160.25 71.66 149.41 67.09 142.00 C 64.82 137.78 60.72 135.17 57.06 132.31 C 58.56 132.90 60.05 133.51 61.54 134.12 C 61.53 132.05 61.53 129.97 61.52 127.90 C 63.81 126.86 66.47 126.07 67.90 123.82 C 69.62 121.52 69.56 118.53 69.87 115.81 C 72.24 115.80 74.61 115.80 76.98 115.80 C 74.89 98.85 73.68 81.79 71.25 64.88 C 66.85 66.73 62.84 69.34 58.57 71.46 C 54.72 73.40 50.37 73.75 46.14 74.14 C 51.27 84.70 56.55 95.20 62.42 105.36 C 57.92 111.18 50.00 112.76 43.03 112.20 C 37.42 111.70 30.93 110.43 27.88 105.12 C 34.04 95.38 38.65 84.77 43.98 74.57 C 41.92 72.67 39.82 69.81 42.14 67.20 C 44.64 64.11 47.85 67.79 50.78 67.68 C 58.39 66.50 63.95 60.30 71.38 58.56 M 31.53 103.90 C 40.55 103.86 49.57 103.84 58.59 103.91 C 54.17 95.15 49.91 86.30 45.31 77.63 C 40.27 86.14 36.14 95.15 31.53 103.90 M 100.50 103.90 C 109.49 103.84 118.48 103.85 127.47 103.90 C 122.95 95.09 118.61 86.19 113.86 77.50 C 108.96 86.07 104.95 95.10 100.50 103.90 M 62.54 134.72 C 68.26 139.37 72.30 146.31 72.03 153.85 C 72.55 153.16 73.60 151.77 74.12 151.08 C 74.54 154.74 75.89 158.50 79.03 160.69 C 83.02 159.92 84.00 154.92 85.06 151.54 C 85.56 152.06 86.56 153.12 87.06 153.64 C 86.73 146.09 90.95 139.26 96.61 134.58 C 85.25 134.79 73.89 134.54 62.54 134.72 Z" />
<path fill="#394b5f" opacity="1.00" d=" M 16.38 96.37 C 19.46 91.27 24.76 88.24 29.92 85.61 C 29.79 89.22 29.71 93.26 27.13 96.10 C 25.67 97.91 23.29 98.34 21.20 99.00 C 22.80 100.07 25.78 100.50 25.57 102.95 C 23.45 105.73 19.75 107.96 20.09 111.94 C 19.63 116.50 22.74 120.16 24.80 123.89 C 22.06 122.02 19.82 119.57 17.59 117.15 C 17.98 116.62 18.38 116.09 18.77 115.56 C 17.26 111.23 17.09 106.46 18.07 102.00 C 19.31 97.21 22.97 93.68 25.83 89.82 C 18.07 94.69 13.70 105.08 17.47 113.79 C 16.99 114.40 16.51 115.01 16.02 115.61 C 13.39 109.58 12.61 102.11 16.38 96.37 Z" />
<path fill="#394b5f" opacity="1.00" d=" M 129.03 85.78 C 136.77 88.88 144.63 95.08 145.15 104.04 C 146.42 112.30 140.47 119.40 134.24 123.95 C 136.53 119.94 139.71 115.86 138.90 110.92 C 138.88 107.26 134.94 105.63 133.48 102.70 C 133.37 100.44 136.36 100.04 137.84 99.01 C 135.73 98.38 133.37 97.88 131.90 96.09 C 129.27 93.36 129.37 89.31 129.03 85.78 M 132.98 89.60 C 135.97 93.51 139.78 97.11 140.99 102.06 C 142.24 106.31 141.11 110.74 141.21 115.07 C 142.64 112.26 142.82 109.09 142.72 106.00 C 143.07 99.20 138.13 93.43 132.98 89.60 Z" />
</g>
</svg>
