<?xml version="1.0" encoding="UTF-8" ?>
<!DOCTYPE svg PUBLIC "-//W3C//DTD SVG 1.1//EN" "http://www.w3.org/Graphics/SVG/1.1/DTD/svg11.dtd">
<svg width="31pt" height="43pt" viewBox="0 0 31 43" version="1.1" xmlns="http://www.w3.org/2000/svg">
<g id="#ffffffff">
<path fill="#ffffff" opacity="1.00" d=" M 13.00 15.72 C 18.20 10.37 23.30 4.90 28.93 0.01 C 29.45 0.53 30.48 1.58 31.00 2.10 L 31.00 2.35 C 25.05 8.54 19.18 14.85 12.76 20.54 C 11.13 19.07 9.44 17.63 8.13 15.86 C 6.94 14.56 9.19 13.55 9.91 12.72 C 10.94 13.71 11.97 14.71 13.00 15.72 Z" />
<path fill="#ffffff" opacity="1.00" d=" M 8.84 5.53 C 12.26 4.14 15.83 5.63 18.95 7.05 C 18.14 7.83 17.32 8.61 16.49 9.38 C 12.16 6.95 6.09 8.71 4.20 13.42 C 1.46 18.47 5.51 25.00 10.96 25.74 C 14.02 26.15 17.21 24.56 18.94 22.05 C 21.09 19.34 19.92 15.11 23.20 13.15 C 24.86 17.61 23.25 22.75 19.91 25.98 C 22.95 30.76 25.63 35.76 28.29 40.75 C 27.13 41.54 25.95 42.29 24.74 43.00 L 24.44 43.00 C 21.05 38.48 18.71 33.27 15.75 28.47 C 9.75 30.35 2.69 26.91 0.82 20.85 C -1.60 14.69 2.50 7.16 8.84 5.53 Z" />
</g>
</svg>
