<?xml version="1.0" encoding="UTF-8" ?>
<!DOCTYPE svg PUBLIC "-//W3C//DTD SVG 1.1//EN" "http://www.w3.org/Graphics/SVG/1.1/DTD/svg11.dtd">
<svg width="68pt" height="67pt" viewBox="0 0 68 67" version="1.1" xmlns="http://www.w3.org/2000/svg">
<g id="#ffffffff">
<path fill="#ffffff" opacity="1.00" d=" M 6.90 13.99 C 12.48 6.26 21.59 1.25 31.11 0.65 C 31.11 3.15 31.11 5.66 31.10 8.17 C 17.49 9.56 6.25 23.08 8.26 36.79 C 9.91 51.10 25.03 61.73 39.08 58.69 C 50.21 56.65 59.06 46.57 59.83 35.30 C 62.35 35.29 64.88 35.29 67.40 35.31 C 66.68 50.19 54.78 63.51 40.15 66.07 C 27.10 68.79 12.84 62.63 5.73 51.39 C -1.65 40.27 -1.09 24.64 6.90 13.99 Z" />
<path fill="#ffffff" opacity="1.00" d=" M 35.51 0.66 C 42.81 1.02 49.86 3.88 55.48 8.54 C 53.63 10.36 51.76 12.16 49.89 13.97 C 45.88 10.51 40.80 8.48 35.53 8.15 C 35.55 5.65 35.54 3.16 35.51 0.66 Z" />
<path fill="#ffffff" opacity="1.00" d=" M 53.63 16.92 C 55.40 15.10 57.21 13.31 59.03 11.55 C 63.84 16.92 66.85 23.82 67.34 31.02 C 64.82 31.03 62.30 31.03 59.77 31.02 C 59.17 25.84 56.97 20.92 53.63 16.92 Z" />
<path fill="#ffffff" opacity="1.00" d=" M 31.51 29.60 C 37.08 26.03 42.78 22.67 48.42 19.21 C 45.10 24.74 42.15 30.47 38.90 36.04 C 37.56 38.73 33.75 39.56 31.39 37.72 C 28.67 35.91 28.69 31.30 31.51 29.60 Z" />
</g>
</svg>
