<?xml version="1.0" encoding="UTF-8" ?>
<!DOCTYPE svg PUBLIC "-//W3C//DTD SVG 1.1//EN" "http://www.w3.org/Graphics/SVG/1.1/DTD/svg11.dtd">
<svg width="43pt" height="48pt" viewBox="0 0 43 48" version="1.1" xmlns="http://www.w3.org/2000/svg">
<g id="#ffffffff">
<path fill="#ffffff" opacity="1.00" d=" M 14.34 1.09 C 20.78 -2.31 29.23 3.86 28.22 11.01 C 28.27 18.28 19.03 22.98 13.07 18.88 C 6.40 15.11 7.07 3.80 14.34 1.09 Z" />
<path fill="#ffffff" opacity="1.00" d=" M 0.00 37.56 C 0.72 30.54 3.00 23.36 8.52 18.61 C 11.38 21.25 14.94 23.57 19.03 23.06 C 22.63 23.23 25.48 20.84 28.10 18.72 C 31.67 21.30 33.51 25.48 35.26 29.38 C 31.27 28.92 27.10 29.93 24.97 33.62 C 24.86 36.00 24.85 38.39 24.83 40.77 C 16.49 41.58 7.98 40.78 0.00 38.21 L 0.00 37.56 Z" />
<path fill="#ffffff" opacity="1.00" d=" M 29.50 31.66 C 32.70 30.75 36.32 30.79 39.56 31.50 C 43.88 33.16 42.82 38.42 42.89 42.06 C 43.28 45.33 40.27 48.23 37.03 47.90 C 33.91 47.80 30.21 48.63 27.69 46.28 C 25.59 43.61 26.68 40.04 26.51 36.94 C 26.41 34.81 27.25 32.33 29.50 31.66 M 32.83 37.76 C 31.18 38.03 27.91 37.38 28.18 40.02 C 29.00 41.91 31.22 41.33 32.82 41.52 C 32.98 42.94 32.26 45.51 34.19 45.88 C 36.70 46.35 36.36 43.16 36.23 41.55 C 37.95 41.38 40.11 41.83 41.10 40.00 C 40.96 37.44 38.04 38.01 36.27 37.74 C 36.43 36.02 36.67 32.96 34.13 33.16 C 32.27 33.97 32.93 36.17 32.83 37.76 Z" />
</g>
</svg>
