<?xml version="1.0" encoding="UTF-8" ?>
<!DOCTYPE svg PUBLIC "-//W3C//DTD SVG 1.1//EN" "http://www.w3.org/Graphics/SVG/1.1/DTD/svg11.dtd">
<svg width="40pt" height="45pt" viewBox="0 0 40 45" version="1.1" xmlns="http://www.w3.org/2000/svg">
<g id="#ffffffff">
<path fill="#ffffff" opacity="1.00" d=" M 10.96 4.33 C 12.42 1.36 15.44 -1.19 18.75 1.01 C 19.28 2.21 19.81 3.42 20.32 4.63 C 23.53 4.62 26.77 4.36 29.97 4.84 C 32.04 6.87 31.07 10.31 31.05 12.92 C 30.58 15.01 28.10 13.90 26.92 13.14 C 26.99 11.58 27.06 10.02 27.11 8.45 C 24.90 8.32 23.04 9.31 21.60 10.93 C 17.93 11.13 14.25 11.10 10.58 10.97 C 9.00 9.15 6.84 8.31 4.43 8.43 C 4.23 19.19 4.43 29.96 4.32 40.72 C 13.32 40.94 22.33 40.75 31.34 40.82 C 31.25 41.66 31.08 43.35 31.00 44.19 C 26.41 45.28 21.67 44.75 17.01 44.88 C 11.95 44.80 6.87 45.14 1.82 44.66 C 1.45 44.25 0.71 43.42 0.34 43.01 C -0.15 31.22 0.30 19.42 0.00 7.63 L 0.00 6.09 C 3.09 3.44 7.35 5.22 10.96 4.33 M 13.73 3.26 C 13.59 4.97 14.94 7.43 16.83 5.92 C 19.07 4.88 17.34 2.88 16.08 1.91 C 15.49 2.25 14.32 2.92 13.73 3.26 Z" />
<path fill="#ffffff" opacity="1.00" d=" M 8.57 22.09 C 8.48 20.38 7.91 18.47 8.68 16.87 C 9.85 16.89 12.18 16.91 13.35 16.92 L 14.12 18.59 C 12.71 18.97 11.47 18.24 10.24 17.67 C 10.19 18.50 10.08 20.15 10.02 20.97 C 11.38 20.63 12.76 20.02 14.16 20.54 L 13.07 21.90 C 11.94 21.95 9.69 22.04 8.57 22.09 Z" />
<path fill="#ffffff" opacity="1.00" d=" M 19.10 31.71 C 15.94 25.41 20.87 16.84 28.00 16.76 C 34.15 15.82 39.86 21.19 40.00 27.25 L 40.00 27.51 C 39.76 30.69 38.42 33.85 35.81 35.79 C 30.63 40.29 21.61 38.09 19.10 31.71 M 31.61 21.58 C 29.90 23.89 28.91 26.64 27.61 29.18 C 26.90 28.42 26.22 27.63 25.55 26.84 C 24.13 26.72 23.33 27.66 22.74 28.83 C 24.35 30.93 25.81 33.24 28.01 34.80 C 31.20 31.21 32.67 26.50 34.99 22.35 C 34.11 21.62 32.61 20.09 31.61 21.58 Z" />
<path fill="#ffffff" opacity="1.00" d=" M 8.30 24.89 C 9.98 24.85 11.67 24.78 13.35 24.89 C 14.24 26.26 13.50 28.28 13.60 29.88 C 11.92 29.98 10.23 30.02 8.55 30.04 C 8.40 28.33 8.34 26.61 8.30 24.89 M 10.21 26.10 C 8.95 27.07 10.19 29.84 11.72 28.62 C 13.04 27.62 11.82 24.88 10.21 26.10 Z" />
<path fill="#ffffff" opacity="1.00" d=" M 8.30 32.75 C 10.12 32.57 11.94 32.56 13.76 32.72 C 13.79 34.32 13.78 35.91 13.71 37.50 C 11.94 37.91 10.16 37.94 8.39 37.54 C 8.31 35.94 8.29 34.34 8.30 32.75 M 10.19 34.27 C 9.69 35.96 10.23 36.55 11.80 36.03 C 12.37 34.36 11.83 33.77 10.19 34.27 Z" />
</g>
</svg>
