<?xml version="1.0" encoding="UTF-8" ?>
<!DOCTYPE svg PUBLIC "-//W3C//DTD SVG 1.1//EN" "http://www.w3.org/Graphics/SVG/1.1/DTD/svg11.dtd">
<svg width="30pt" height="44pt" viewBox="0 0 30 44" version="1.1" xmlns="http://www.w3.org/2000/svg">
<g id="#ffffffff">
<path fill="#ffffff" opacity="1.00" d=" M 19.70 0.00 L 20.42 0.00 C 23.77 1.72 27.05 3.63 30.00 5.99 L 30.00 7.27 C 29.61 7.85 28.84 9.01 28.45 9.59 C 24.67 7.18 20.78 4.95 16.94 2.63 C 17.83 1.72 18.75 0.85 19.70 0.00 Z" />
<path fill="#ffffff" opacity="1.00" d=" M 14.03 7.72 C 14.60 6.91 15.16 6.10 15.72 5.29 C 19.45 7.66 23.31 9.82 27.06 12.16 C 26.69 12.74 25.95 13.90 25.58 14.48 C 21.67 12.33 17.98 9.81 14.03 7.72 Z" />
<path fill="#ffffff" opacity="1.00" d=" M 1.95 27.71 C 5.45 21.81 9.17 16.03 12.71 10.15 C 13.93 10.90 15.14 11.66 16.36 12.41 C 12.80 18.27 9.18 24.07 5.60 29.92 C 4.38 29.20 3.16 28.46 1.95 27.71 Z" />
<path fill="#ffffff" opacity="1.00" d=" M 20.35 14.75 C 21.72 15.51 23.10 16.30 24.18 17.46 C 20.15 22.64 16.87 28.47 13.71 34.23 C 12.14 34.02 10.85 33.05 9.53 32.25 C 13.20 26.45 16.74 20.59 20.35 14.75 Z" />
<path fill="#ffffff" opacity="1.00" d=" M 1.12 33.40 C 3.56 34.73 5.83 36.37 8.41 37.42 C 5.88 39.70 2.91 41.43 0.01 43.19 C 0.51 39.94 0.96 36.69 1.12 33.40 Z" />
<path fill="#ffffff" opacity="1.00" d=" M 7.98 42.00 C 15.21 41.96 22.45 41.98 29.68 41.99 C 29.63 42.49 29.53 43.50 29.48 44.00 L 8.47 44.00 C 8.35 43.50 8.10 42.50 7.98 42.00 Z" />
</g>
</svg>
