<?xml version="1.0" encoding="UTF-8" ?>
<!DOCTYPE svg PUBLIC "-//W3C//DTD SVG 1.1//EN" "http://www.w3.org/Graphics/SVG/1.1/DTD/svg11.dtd">
<svg width="73pt" height="47pt" viewBox="0 0 73 47" version="1.1" xmlns="http://www.w3.org/2000/svg">
<g id="#ffffffff">
<path fill="#ffffff" opacity="1.00" d=" M 35.67 0.00 L 36.19 0.00 C 38.77 0.35 41.16 1.42 43.09 3.18 C 43.36 7.68 44.14 12.16 44.05 16.66 C 43.63 17.04 42.77 17.80 42.35 18.18 C 42.09 20.30 39.54 22.66 41.68 24.45 C 44.17 28.42 50.14 27.28 52.86 30.97 C 54.82 36.12 55.56 41.64 56.75 47.00 L 15.86 47.00 C 16.69 42.28 17.36 37.46 18.80 32.89 C 22.10 28.06 28.97 27.81 32.54 23.15 C 30.63 19.78 27.72 16.17 28.84 12.06 C 28.25 9.17 28.36 6.20 28.98 3.32 C 31.05 1.91 33.11 0.36 35.67 0.00 Z" />
<path fill="#ffffff" opacity="1.00" d=" M 11.91 5.16 C 13.95 3.97 15.96 2.74 18.02 1.60 C 20.23 3.14 23.37 3.89 24.57 6.51 C 25.03 8.96 25.22 11.46 25.45 13.95 C 24.72 16.69 23.27 19.20 21.78 21.60 C 21.77 23.89 23.29 25.13 25.30 25.82 C 22.07 27.24 18.52 28.86 16.84 32.18 C 15.88 34.82 15.51 37.62 14.82 40.33 C 9.88 40.29 4.94 40.34 0.00 40.27 L 0.00 39.50 C 0.60 35.80 0.22 31.00 3.83 28.74 C 7.06 27.16 10.57 26.20 13.75 24.46 C 13.96 23.44 14.18 22.42 14.39 21.39 C 13.28 19.38 12.32 17.28 11.02 15.37 C 11.25 11.97 11.15 8.51 11.91 5.16 Z" />
<path fill="#ffffff" opacity="1.00" d=" M 50.01 7.98 C 50.64 2.37 58.81 0.80 62.15 4.96 C 63.79 7.32 63.77 10.34 64.23 13.08 C 64.49 15.74 65.68 18.26 65.37 20.97 C 63.77 21.48 62.17 21.99 60.57 22.49 C 61.95 27.50 67.44 28.73 71.63 30.42 C 73.30 33.42 72.54 37.16 73.00 40.48 L 73.00 41.40 C 67.96 41.44 62.91 41.40 57.87 41.43 C 56.97 38.11 56.29 34.73 55.37 31.41 C 54.69 28.81 52.09 27.62 49.97 26.39 C 50.96 25.24 53.03 24.49 52.86 22.70 C 50.86 21.74 48.46 21.35 47.03 19.47 L 48.64 20.17 C 47.74 16.17 49.82 12.05 50.01 7.98 Z" />
</g>
</svg>
